<?xml version="1.0" encoding="utf-8"?>
<!-- Generator: Adobe Illustrator 25.4.0, SVG Export Plug-In . SVG Version: 6.00 Build 0)  -->
<svg version="1.1" id="Layer_1" xmlns="http://www.w3.org/2000/svg" xmlns:xlink="http://www.w3.org/1999/xlink" x="0px" y="0px"
	 viewBox="0 0 165 60" style="enable-background:new 0 0 165 60;" xml:space="preserve">
<style type="text/css">
	.st0{fill:#FFFFFF;}
</style>
<g>
	<path class="st0" d="M30,0C13.5,0,0,13.5,0,30c0,16.5,13.5,30,30,30c16.5,0,30-13.5,30-30C60,13.5,46.5,0,30,0z M51.1,29.1
		c0.5,0,0.9,0.4,0.9,0.9c0,12.1-9.9,22-22,22c-0.5,0-0.9-0.4-0.9-0.9c0-0.5,0.4-0.9,0.9-0.9c11.1,0,20.1-9,20.1-20.1
		C50.1,29.5,50.6,29.1,51.1,29.1z M47.4,29.1c0.5,0,0.9,0.4,0.9,0.9c0,10.1-8.2,18.3-18.3,18.3c-0.5,0-0.9-0.4-0.9-0.9
		c0-0.5,0.4-0.9,0.9-0.9c9.1,0,16.4-7.4,16.4-16.4C46.4,29.5,46.8,29.1,47.4,29.1z M43.6,29.1c0.5,0,0.9,0.4,0.9,0.9
		c0,8-6.5,14.5-14.5,14.5c-0.5,0-0.9-0.4-0.9-0.9c0-0.5,0.4-0.9,0.9-0.9c7,0,12.6-5.7,12.6-12.6C42.6,29.5,43.1,29.1,43.6,29.1z
		 M5.2,30.9c-0.5,0-0.9-0.4-0.9-0.9C4.3,15.8,15.8,4.3,30,4.3c0.5,0,0.9,0.4,0.9,0.9c0,0.5-0.4,0.9-0.9,0.9
		C16.8,6.2,6.2,16.8,6.2,30C6.2,30.5,5.7,30.9,5.2,30.9z M8.9,30.9C8.4,30.9,8,30.5,8,30C8,17.9,17.9,8,30,8c0.5,0,0.9,0.4,0.9,0.9
		c0,0.5-0.4,0.9-0.9,0.9c-11.1,0-20.1,9-20.1,20.1C9.9,30.5,9.4,30.9,8.9,30.9z M12.6,30.9c-0.5,0-0.9-0.4-0.9-0.9
		c0-10.1,8.2-18.3,18.3-18.3c0.5,0,0.9,0.4,0.9,0.9c0,0.5-0.4,0.9-0.9,0.9c-9.1,0-16.4,7.4-16.4,16.4C13.6,30.5,13.2,30.9,12.6,30.9
		z M16.4,30.9c-0.5,0-0.9-0.4-0.9-0.9c0-8,6.5-14.5,14.5-14.5c0.5,0,0.9,0.4,0.9,0.9c0,0.5-0.4,0.9-0.9,0.9c-7,0-12.6,5.7-12.6,12.6
		C17.4,30.5,16.9,30.9,16.4,30.9z M20.7,30c0-5.2,4.2-9.3,9.3-9.3c5.2,0,9.3,4.2,9.3,9.3c0,5.2-4.2,9.3-9.3,9.3
		C24.8,39.3,20.7,35.2,20.7,30z M30,55.7c-0.5,0-0.9-0.4-0.9-0.9c0-0.5,0.4-0.9,0.9-0.9c13.1,0,23.8-10.7,23.8-23.8
		c0-0.5,0.4-0.9,0.9-0.9c0.5,0,0.9,0.4,0.9,0.9C55.7,44.2,44.2,55.7,30,55.7z"/>
	<path class="st0" d="M32.3,30c0-1.3-1-2.3-2.3-2.3c-1.3,0-2.3,1-2.3,2.3c0,1.3,1,2.3,2.3,2.3C31.3,32.3,32.3,31.3,32.3,30z"/>
</g>
<g>
	<path class="st0" d="M84.5,29.7c4.2,0,7.8-2.2,9.8-6.3l-2.6-1.6c-1.2,2.4-3.2,4.6-6.9,4.6c-5.1,0-7.7-4-7.7-8.6
		c0-5.4,3.3-8.9,7.3-8.9c3.2,0,5.4,1.9,6.5,5.4l3.1-1.1c-1.5-4.8-4.8-7.6-9.6-7.6c-6.2,0-10.8,5.2-10.8,12.2
		C73.5,24.9,78.3,29.7,84.5,29.7z"/>
	<path class="st0" d="M104.7,29.6c4.8,0,8.2-3.9,8.2-8.9c0-5.1-3.2-8.9-8.1-8.9c-4.9,0-8.3,3.7-8.3,8.9
		C96.5,25.9,99.8,29.6,104.7,29.6z M104.8,14.8c3.2,0,4.8,2.7,4.8,5.9c0,3.3-1.8,5.9-4.9,5.9c-3.2,0-4.9-2.7-4.9-5.9
		C99.8,17.5,101.6,14.8,104.8,14.8z"/>
	<path class="st0" d="M131.5,29.2V6h-3.4v9.5H128c-0.8-1.9-2.6-3.6-5.3-3.6c-4.4,0-7.5,3.7-7.5,8.9c0,5.3,3.3,8.9,7.7,8.9
		c2.9,0,4.8-1.6,5.7-3.7h0.2v3.3H131.5z M123.3,26.5c-2.9,0-4.7-2.4-4.7-5.8c0-3.6,2-5.7,4.7-5.7c3.1,0,4.7,2.6,4.7,5.7
		C128.1,23.8,126.3,26.5,123.3,26.5z"/>
	<path class="st0" d="M143.1,29.7c2.6,0,5.2-1.1,7-3.4l-1.9-2c-1.4,1.6-3.3,2.4-5.1,2.4c-2.4,0-4.6-1.5-5.2-4.6h12.4
		c0-1.2,0-1.6,0-2.2c0-4.3-2.8-8.1-7.6-8.1s-8.2,3.8-8.2,8.9C134.6,26.7,138.8,29.7,143.1,29.7z M142.6,14.8c2.2,0,4.4,1.7,4.5,4.7
		H138C138.5,16.3,140.5,14.8,142.6,14.8z"/>
	<path class="st0" d="M157.1,19.4c0-2.2,0.8-3.4,3.2-3.4h2.2v-3.8h-1.1c-2,0-3.8,0.7-4.5,3.1h-0.2v-3.1h-3.1v16.9h3.4V19.4z"/>
	<path class="st0" d="M86.5,41.2c0-3.4-2.5-5.9-6.7-5.9h-5.2v18.8H76v-7h3.9c0.3,0,0.6,0,0.9-0.1l4.9,7h1.6l-5.1-7.3
		C84.8,46,86.5,43.9,86.5,41.2z M79.8,45.8H76v-9.2h3.6c3.4,0,5.5,1.6,5.5,4.6C85.1,44,83,45.8,79.8,45.8z"/>
	<path class="st0" d="M94.2,40c-3.6,0-6.3,3.1-6.3,7.3c0,4.9,3.1,7.2,6.2,7.2c2.2,0,4.5-1.2,5.7-3.5l-1.1-0.6
		c-1,1.8-2.8,2.8-4.6,2.8c-2.4,0-4.7-1.8-4.9-5.6h10.7v-1C99.9,42.9,97.8,40,94.2,40z M89.3,46.4c0.3-3.4,2.5-5.1,4.8-5.1
		c2.5,0,4.3,1.9,4.4,5.1H89.3z"/>
	<path class="st0" d="M108.4,53.2c-2.9,0-4.9-2.5-4.9-5.9c0-4.1,2.4-6,4.7-6c1.8,0,3.3,0.9,4,2.9l1.3-0.4c-0.8-2.2-2.5-3.7-5.2-3.7
		c-3.6,0-6.2,3.1-6.2,7.3c0,4.1,2.5,7.2,6.2,7.2c2.5,0,4.5-1.2,5.7-3.5l-1.1-0.6C112,52.1,110.3,53.2,108.4,53.2z"/>
	<path class="st0" d="M122,40c-3.8,0-6.4,3.1-6.4,7.2c0,4.2,2.5,7.2,6.3,7.2s6.3-3.2,6.3-7.3C128.3,43.1,125.8,40,122,40z M122,53.2
		c-3.1,0-4.9-2.6-4.9-5.9c0-3.3,1.8-5.9,4.9-5.9c3.1,0,4.8,2.6,4.8,5.9C126.8,50.6,125,53.2,122,53.2z"/>
	<path class="st0" d="M132.6,42.6h-0.1v-2.2h-1.1v13.7h1.4v-9.4c0-1.7,0.8-2.9,2.7-2.9h1.9v-1.4h-1.1
		C134.7,40.4,133.2,40.9,132.6,42.6z"/>
	<path class="st0" d="M149.5,43.5h-0.1c-0.6-1.8-2.2-3.5-4.8-3.5c-3.5,0-6.1,2.8-6.1,7.2c0,4.3,2.5,7.3,6.1,7.3
		c2.6,0,4.2-1.6,4.9-3.4h0.1v3h1.3V35.3h-1.3V43.5z M144.5,53.2c-2.9,0-4.7-2.4-4.7-6c0-3.8,2-5.9,4.8-5.9c3.2,0,4.8,2.8,4.8,5.9
		C149.4,50.4,147.6,53.2,144.5,53.2z"/>
	<path class="st0" d="M160.4,46.9c-2-0.6-3.9-1.1-3.9-2.9c0-1.6,1.6-2.7,3.4-2.7s3.2,0.9,3.9,2.6l1.3-0.4c-0.8-1.9-2.5-3.5-5.1-3.5
		c-2.2,0-4.8,1.3-4.8,4.1c0,2.7,2.5,3.4,4.8,4.1c1.9,0.6,3.7,1.1,3.7,2.7c0,1.5-1.6,2.4-3.5,2.4c-2,0-3.8-1-4.7-2.9l-1.3,0.6
		c1.1,2.2,3.1,3.5,5.9,3.5c2.4,0,4.8-1.1,5-3.5C165.2,48.3,162.6,47.5,160.4,46.9z"/>
</g>
</svg>
